# xmcd
#
# Track frame offsets:
#	150
#	30992
#	53830
#	70015
#	107394
#	128376
#	169870
#
# Disc length: 4164 seconds
#
# Revision: 1
# Processed by: cddbd v1.5.2PL0 Copyright (c) Steve Scherf et al.
# Submitted via: audiograbber 1.83.01
#
DISCID=49104207
DTITLE=Hellveto - Neoheresy
DYEAR=2008
DGENRE=Black Metal
TTITLE0=Taran
TTITLE1=Herezja
TTITLE2=Gdy Umiera Swit
TTITLE3=Milczace Sumienie
TTITLE4=Choragiew Ktora Splonie
TTITLE5=Sredniowieczna Egzekucja
TTITLE6=Data Track
EXTD=
EXTT0=
EXTT1=
EXTT2=
EXTT3=
EXTT4=
EXTT5=
EXTT6=
PLAYORDER=
